<svg height="1614" width="720" xmlns="http://www.w3.org/2000/svg">
<rect height="1614" fill="#555" width="720"></rect>
<text fill="#7f7" font-family="Courier New" font-size="12" xml:space="preserve">
<tspan x="10" y="26">14 megabytes installed</tspan>
<tspan x="10" y="42"></tspan>
<tspan x="10" y="58">node_modules</tspan>
<tspan x="10" y="74">└─┬ gulp-angular-embed-templates@2.3.0 </tspan>
<tspan x="10" y="90">  ├─┬ gulp-util@3.0.8 </tspan>
<tspan x="10" y="106">  │ ├── array-differ@1.0.0 </tspan>
<tspan x="10" y="122">  │ ├── array-uniq@1.0.3 </tspan>
<tspan x="10" y="138">  │ ├── beeper@1.1.1 </tspan>
<tspan x="10" y="154">  │ ├─┬ chalk@1.1.3 </tspan>
<tspan x="10" y="170">  │ │ ├── ansi-styles@2.2.1 </tspan>
<tspan x="10" y="186">  │ │ ├── escape-string-regexp@1.0.5 </tspan>
<tspan x="10" y="202">  │ │ ├── has-ansi@2.0.0 </tspan>
<tspan x="10" y="218">  │ │ ├── strip-ansi@3.0.1 </tspan>
<tspan x="10" y="234">  │ │ └── supports-color@2.0.0 </tspan>
<tspan x="10" y="250">  │ ├── dateformat@2.0.0 </tspan>
<tspan x="10" y="266">  │ ├─┬ fancy-log@1.3.0 </tspan>
<tspan x="10" y="282">  │ │ └── time-stamp@1.0.1 </tspan>
<tspan x="10" y="298">  │ ├─┬ gulplog@1.0.0 </tspan>
<tspan x="10" y="314">  │ │ └── glogg@1.0.0 </tspan>
<tspan x="10" y="330">  │ ├─┬ has-gulplog@0.1.0 </tspan>
<tspan x="10" y="346">  │ │ └── sparkles@1.0.0 </tspan>
<tspan x="10" y="362">  │ ├── lodash._reescape@3.0.0 </tspan>
<tspan x="10" y="378">  │ ├── lodash._reevaluate@3.0.0 </tspan>
<tspan x="10" y="394">  │ ├── lodash._reinterpolate@3.0.0 </tspan>
<tspan x="10" y="410">  │ ├─┬ lodash.template@3.6.2 </tspan>
<tspan x="10" y="426">  │ │ ├── lodash._basecopy@3.0.1 </tspan>
<tspan x="10" y="442">  │ │ ├── lodash._basetostring@3.0.1 </tspan>
<tspan x="10" y="458">  │ │ ├── lodash._basevalues@3.0.0 </tspan>
<tspan x="10" y="474">  │ │ ├── lodash._isiterateecall@3.0.9 </tspan>
<tspan x="10" y="490">  │ │ ├─┬ lodash.escape@3.2.0 </tspan>
<tspan x="10" y="506">  │ │ │ └── lodash._root@3.0.1 </tspan>
<tspan x="10" y="522">  │ │ ├─┬ lodash.keys@3.1.2 </tspan>
<tspan x="10" y="538">  │ │ │ ├── lodash._getnative@3.9.1 </tspan>
<tspan x="10" y="554">  │ │ │ ├── lodash.isarguments@3.1.0 </tspan>
<tspan x="10" y="570">  │ │ │ └── lodash.isarray@3.0.4 </tspan>
<tspan x="10" y="586">  │ │ ├── lodash.restparam@3.6.1 </tspan>
<tspan x="10" y="602">  │ │ └── lodash.templatesettings@3.1.1 </tspan>
<tspan x="10" y="618">  │ ├── minimist@1.2.0 </tspan>
<tspan x="10" y="634">  │ ├─┬ multipipe@0.1.2 </tspan>
<tspan x="10" y="650">  │ │ └─┬ duplexer2@0.0.2 </tspan>
<tspan x="10" y="666">  │ │   └─┬ readable-stream@1.1.14 </tspan>
<tspan x="10" y="682">  │ │     ├── isarray@0.0.1 </tspan>
<tspan x="10" y="698">  │ │     └── string_decoder@0.10.31 </tspan>
<tspan x="10" y="714">  │ ├── object-assign@3.0.0 </tspan>
<tspan x="10" y="730">  │ ├── replace-ext@0.0.1 </tspan>
<tspan x="10" y="746">  │ └─┬ vinyl@0.5.3 </tspan>
<tspan x="10" y="762">  │   ├── clone@1.0.2 </tspan>
<tspan x="10" y="778">  │   └── clone-stats@0.0.1 </tspan>
<tspan x="10" y="794">  ├─┬ htmlparser2@3.9.2 </tspan>
<tspan x="10" y="810">  │ ├── domelementtype@1.3.0 </tspan>
<tspan x="10" y="826">  │ ├── domhandler@2.3.0 </tspan>
<tspan x="10" y="842">  │ ├─┬ domutils@1.5.1 </tspan>
<tspan x="10" y="858">  │ │ └─┬ dom-serializer@0.1.0 </tspan>
<tspan x="10" y="874">  │ │   └── domelementtype@1.1.3 </tspan>
<tspan x="10" y="890">  │ ├── entities@1.1.1 </tspan>
<tspan x="10" y="906">  │ ├── inherits@2.0.3 </tspan>
<tspan x="10" y="922">  │ └─┬ readable-stream@2.2.9 </tspan>
<tspan x="10" y="938">  │   ├── buffer-shims@1.0.0 </tspan>
<tspan x="10" y="954">  │   ├── core-util-is@1.0.2 </tspan>
<tspan x="10" y="970">  │   ├── isarray@1.0.0 </tspan>
<tspan x="10" y="986">  │   ├── process-nextick-args@1.0.7 </tspan>
<tspan x="10" y="1002">  │   ├── string_decoder@1.0.0 </tspan>
<tspan x="10" y="1018">  │   └── util-deprecate@1.0.2 </tspan>
<tspan x="10" y="1034">  ├─┬ minimize@2.1.0 </tspan>
<tspan x="10" y="1050">  │ ├── argh@0.1.4 </tspan>
<tspan x="10" y="1066">  │ ├─┬ async@2.3.0 </tspan>
<tspan x="10" y="1082">  │ │ └── lodash@4.17.4 </tspan>
<tspan x="10" y="1098">  │ ├─┬ cli-color@1.2.0 </tspan>
<tspan x="10" y="1114">  │ │ ├── ansi-regex@2.1.1 </tspan>
<tspan x="10" y="1130">  │ │ ├── d@1.0.0 </tspan>
<tspan x="10" y="1146">  │ │ ├─┬ es5-ext@0.10.15 </tspan>
<tspan x="10" y="1162">  │ │ │ └── es6-symbol@3.1.1 </tspan>
<tspan x="10" y="1178">  │ │ ├── es6-iterator@2.0.1 </tspan>
<tspan x="10" y="1194">  │ │ ├─┬ memoizee@0.4.4 </tspan>
<tspan x="10" y="1210">  │ │ │ ├── es6-weak-map@2.0.2 </tspan>
<tspan x="10" y="1226">  │ │ │ ├── event-emitter@0.3.5 </tspan>
<tspan x="10" y="1242">  │ │ │ ├── is-promise@2.1.0 </tspan>
<tspan x="10" y="1258">  │ │ │ ├── lru-queue@0.1.0 </tspan>
<tspan x="10" y="1274">  │ │ │ └── next-tick@1.0.0 </tspan>
<tspan x="10" y="1290">  │ │ └── timers-ext@0.1.2 </tspan>
<tspan x="10" y="1306">  │ ├─┬ diagnostics@1.1.0 </tspan>
<tspan x="10" y="1322">  │ │ ├─┬ colorspace@1.0.1 </tspan>
<tspan x="10" y="1338">  │ │ │ ├─┬ color@0.8.0 </tspan>
<tspan x="10" y="1354">  │ │ │ │ ├── color-convert@0.5.3 </tspan>
<tspan x="10" y="1370">  │ │ │ │ └─┬ color-string@0.3.0 </tspan>
<tspan x="10" y="1386">  │ │ │ │   └── color-name@1.1.2 </tspan>
<tspan x="10" y="1402">  │ │ │ └── text-hex@0.0.0 </tspan>
<tspan x="10" y="1418">  │ │ ├─┬ enabled@1.0.2 </tspan>
<tspan x="10" y="1434">  │ │ │ └── env-variable@0.0.3 </tspan>
<tspan x="10" y="1450">  │ │ └─┬ kuler@0.0.0 </tspan>
<tspan x="10" y="1466">  │ │   └── colornames@0.0.2 </tspan>
<tspan x="10" y="1482">  │ ├── emits@3.0.0 </tspan>
<tspan x="10" y="1498">  │ └── uuid@3.0.1 </tspan>
<tspan x="10" y="1514">  ├── object-assign@4.1.0 </tspan>
<tspan x="10" y="1530">  └─┬ through2@2.0.3 </tspan>
<tspan x="10" y="1546">    ├─┬ readable-stream@2.2.9 </tspan>
<tspan x="10" y="1562">    │ ├── isarray@1.0.0 </tspan>
<tspan x="10" y="1578">    │ └── string_decoder@1.0.0 </tspan>
<tspan x="10" y="1594">    └── xtend@4.0.1</tspan>
</text>
</svg>
